<svg width="64" height="64" viewBox="0 0 64 64" fill="none" xmlns="http://www.w3.org/2000/svg">
<path d="M43.9733 41.3333V36.6667L37.3333 43.3333L43.9733 50V45.3333H58.6667V41.3333H43.9733ZM52.0267 52.6667H37.3333V56.6667H52.0267V61.3333L58.6667 54.6667L52.0267 48V52.6667ZM25.3333 14.6667C28.2666 14.6667 30.6666 12.2667 30.6666 9.33333C30.6666 6.4 28.2666 4 25.3333 4C22.4 4 20 6.4 20 9.33333C20 12.2667 22.4 14.6667 25.3333 14.6667ZM15.3333 23.7333L7.99998 61.3333H13.6L18.2666 40L24 45.3333V61.3333H29.3333V41.2L23.8666 35.7333L25.4667 27.7333C28.9333 32 34.1333 34.6667 40 34.6667V29.3333C35.0667 29.3333 30.8 26.6667 28.4 22.8L25.8666 18.5333C24.9333 16.9333 23.2 16 21.3333 16C20.6666 16 20 16.1333 19.3333 16.4L5.33331 22.1333V34.6667H10.6666V25.7333L15.3333 23.7333Z" fill="#7098FF"/>
</svg>
